<svg id="svg" version="1.1" xmlns="http://www.w3.org/2000/svg" xmlns:xlink="http://www.w3.org/1999/xlink" width="24" height="24" viewBox="0, 0, 400,400"><g id="svgg"><path id="path0" d="M72.743 89.748 L 0.000 162.830 0.000 256.415 C -0.000 389.344,-7.251 384.347,181.442 381.442 L 329.167 379.167 331.804 356.250 L 334.440 333.333 275.554 333.333 C 186.047 333.333,205.107 317.610,297.917 314.885 L 379.167 312.500 381.804 289.583 L 384.440 266.667 300.554 266.667 C 186.974 266.667,191.737 251.222,306.250 248.199 L 395.833 245.833 398.470 222.917 L 401.107 200.000 308.887 200.000 C 201.255 200.000,182.407 185.213,285.417 181.587 C 353.540 179.189,354.191 178.958,356.804 156.250 L 359.440 133.333 250.033 133.333 L 140.626 133.333 162.784 92.622 C 181.033 59.094,183.278 48.801,175.511 34.289 C 160.594 6.416,149.997 12.135,72.743 89.748 " stroke="none" fill="#000000" fill-rule="evenodd"></path></g></svg>
