<?xml version="1.0" encoding="UTF-8"?>
<svg xmlns="http://www.w3.org/2000/svg" xmlns:xlink="http://www.w3.org/1999/xlink" width="20pt" height="20pt" viewBox="0 0 20 20" version="1.1">
<g id="surface1">
<path style=" stroke:none;fill-rule:nonzero;fill:rgb(0%,0%,0%);fill-opacity:1;" d="M 6.050781 5.417969 C 5.25 5.832031 4.433594 6.167969 4.214844 6.167969 C 4 6.167969 3.449219 6.015625 2.964844 5.832031 C 2.484375 5.648438 2.066406 5.5 2.050781 5.5 C 2.015625 5.5 2 6.851562 2 8.5 L 2 11.5 L 2.417969 11.601562 C 2.734375 11.683594 2.933594 11.582031 3.382812 11.101562 C 4.25 10.183594 4.765625 10.265625 6.015625 11.464844 C 6.550781 12 7 12.515625 7 12.617188 C 7 12.734375 7.148438 12.867188 7.332031 12.917969 C 7.515625 12.984375 7.785156 13.234375 7.917969 13.5 C 8.050781 13.765625 8.332031 14.066406 8.515625 14.167969 C 8.882812 14.367188 9.367188 15.316406 9.214844 15.550781 C 9.082031 15.765625 9.851562 16.5 10.183594 16.5 C 10.617188 16.5 11.035156 16 10.949219 15.566406 C 10.882812 15.214844 10.898438 15.199219 11.265625 15.433594 C 11.851562 15.832031 12.382812 15.484375 12.300781 14.75 C 12.234375 14.214844 12.25 14.214844 12.601562 14.449219 C 13.199219 14.832031 13.984375 14.25 13.734375 13.582031 C 13.648438 13.398438 13.75 13.332031 14.117188 13.332031 C 14.667969 13.332031 15 13.066406 15 12.617188 C 15 12.199219 11.734375 8.683594 11.214844 8.566406 C 10.964844 8.5 10.417969 8.648438 9.667969 8.984375 C 8.214844 9.632812 7.785156 9.632812 7.148438 9.015625 C 6.199219 8.050781 6.632812 7.050781 8.484375 6.015625 C 9.566406 5.398438 9.648438 5.214844 8.984375 4.882812 C 8.265625 4.515625 7.566406 4.632812 6.050781 5.417969 Z M 6.050781 5.417969 "/>
<path style=" stroke:none;fill-rule:nonzero;fill:rgb(0%,0%,0%);fill-opacity:1;" d="M 9.734375 5.851562 C 8.648438 6.5 7.617188 7.148438 7.464844 7.285156 C 6.851562 7.832031 7.300781 9 8.117188 9 C 8.300781 9 9.101562 8.648438 9.882812 8.234375 C 11 7.648438 11.382812 7.515625 11.617188 7.648438 C 11.785156 7.734375 12.734375 8.632812 13.75 9.648438 C 15.734375 11.648438 15.75 11.667969 17.382812 11.398438 L 18 11.285156 L 18 6.050781 L 16.648438 6.367188 C 15.117188 6.734375 15.167969 6.75 13.667969 5.417969 C 12.484375 4.367188 12.183594 4.398438 9.734375 5.851562 Z M 9.734375 5.851562 "/>
<path style=" stroke:none;fill-rule:nonzero;fill:rgb(0%,0%,0%);fill-opacity:1;" d="M 3.667969 11.535156 C 3.066406 12.183594 3.300781 13.332031 4.035156 13.332031 C 4.214844 13.332031 4.332031 13.449219 4.332031 13.648438 C 4.332031 14.132812 4.800781 14.535156 5.214844 14.398438 C 5.484375 14.316406 5.535156 14.351562 5.449219 14.582031 C 5.285156 15 5.617188 15.5 6.082031 15.5 C 6.417969 15.5 6.484375 15.601562 6.535156 16.035156 C 6.582031 16.550781 6.632812 16.582031 7.285156 16.632812 C 8.183594 16.699219 8.714844 16.234375 8.632812 15.449219 C 8.601562 15.035156 8.464844 14.867188 8.050781 14.667969 C 7.667969 14.484375 7.5 14.300781 7.5 14.035156 C 7.5 13.75 7.351562 13.582031 7 13.449219 C 6.699219 13.332031 6.5 13.132812 6.5 12.949219 C 6.5 12.785156 6.285156 12.535156 6.035156 12.382812 C 5.765625 12.234375 5.464844 11.898438 5.367188 11.632812 C 5.214844 11.25 5.101562 11.167969 4.601562 11.167969 C 4.214844 11.167969 3.898438 11.285156 3.667969 11.535156 Z M 3.667969 11.535156 "/>
</g>
</svg>
