<?xml version="1.0" encoding="UTF-8" standalone="no"?>
<svg
   xmlns:dc="http://purl.org/dc/elements/1.1/"
   xmlns:cc="http://creativecommons.org/ns#"
   xmlns:rdf="http://www.w3.org/1999/02/22-rdf-syntax-ns#"
   xmlns:svg="http://www.w3.org/2000/svg"
   xmlns="http://www.w3.org/2000/svg"
   xmlns:sodipodi="http://sodipodi.sourceforge.net/DTD/sodipodi-0.dtd"
   xmlns:inkscape="http://www.inkscape.org/namespaces/inkscape"
   version="1.1"
   width="24"
   height="24"
   viewBox="0 0 24 24"
   id="svg853"
   sodipodi:docname="neu.svg"
   inkscape:version="1.0.2-2 (e86c870879, 2021-01-15)">
  <metadata
     id="metadata859">
    <rdf:RDF>
      <cc:Work
         rdf:about="">
        <dc:format>image/svg+xml</dc:format>
        <dc:type
           rdf:resource="http://purl.org/dc/dcmitype/StillImage" />
        <dc:title></dc:title>
      </cc:Work>
    </rdf:RDF>
  </metadata>
  <defs
     id="defs857" />
  <sodipodi:namedview
     pagecolor="#ffffff"
     bordercolor="#666666"
     borderopacity="1"
     objecttolerance="10"
     gridtolerance="10"
     guidetolerance="10"
     inkscape:pageopacity="0"
     inkscape:pageshadow="2"
     inkscape:window-width="1920"
     inkscape:window-height="1017"
     id="namedview855"
     showgrid="false"
     inkscape:zoom="12.921875"
     inkscape:cx="48.077611"
     inkscape:cy="32.350798"
     inkscape:window-x="1672"
     inkscape:window-y="-8"
     inkscape:window-maximized="1"
     inkscape:current-layer="svg853" />
  <g
     id="g847" />
  <path
     d="m 10.720921,11.374215 c -0.656027,0.265366 -0.8693288,0.765104 -0.61922,1.329667 l 1.9979,-0.805595 c -0.213234,-0.484175 -0.860058,-0.733319 -1.37868,-0.524006 z"
     fill="#000000"
     id="path849"
     style="stroke-width:0.0675468" />
  <path
     d="m 22.351352,13.172631 1.782795,-1.061299 -1.782795,-1.06433 1.519724,-1.4039303 -1.97012,-0.676247 L 23.089872,7.2842042 21.019497,7.025514 21.825655,5.1361394 19.746589,5.3059177 20.135954,3.2926537 18.136812,3.8819784 18.08996,1.8352619 16.259804,2.8206277 15.781423,0.82688125 14.200167,2.1643365 13.309024,0.31091207 12.045809,1.9400805 10.781593,0.31091207 9.8929805,2.1643365 8.3111785,0.82688125 7.8327979,2.8206277 6.0021408,1.8352619 5.9552898,3.8819784 3.9561927,3.2926537 4.3460482,5.3059177 2.2654983,5.1361394 3.0726941,7.025514 1.0028288,7.2842042 2.1922355,8.9668247 0.22107017,9.6430717 1.7412949,11.047002 l -1.78279583,1.06433 1.78279583,1.061299 -1.52072543,1.404429 1.97116543,0.674241 -1.1894068,1.683593 2.0698742,0.259725 -0.807151,1.889374 2.0805499,-0.169787 -0.3898556,2.013212 1.9990971,-0.590298 0.046851,2.046717 1.8307108,-0.984393 0.4783806,1.993754 1.5818019,-1.337507 0.888613,1.852398 1.264752,-1.629649 1.262723,1.630141 0.891144,-1.852408 1.581256,1.337507 0.47838,-1.993746 1.830157,0.984385 0.04685,-2.046717 1.999142,0.590307 -0.389363,-2.013265 2.07902,0.169788 -0.806158,-1.889376 2.070366,-0.259724 -1.188906,-1.683593 1.97012,-0.67424 -1.519233,-1.404913 z M 7.9471894,16.490869 7.056538,14.426686 C 6.8900919,14.038603 6.6371592,13.739966 6.1877564,13.925248 5.7011769,14.128049 5.7042615,14.487114 5.9195167,14.985582 l 0.8590895,1.990775 -1.5818015,0.655757 -1.6835863,-3.90561 1.4433767,-0.597817 0.2641179,0.609815 c 0.1542237,-0.617274 0.4321018,-1.030825 1.0331444,-1.280541 1.0474144,-0.435006 1.80218,-0.03603 2.2652984,1.03682 l 1.0072065,2.341357 -1.5792177,0.654775 z M 12.067107,14.91369 c -1.275939,0.528896 -2.5722082,0.22323 -3.1376654,-1.088765 -0.5522335,-1.281566 0.0743,-2.508647 1.3501934,-3.038568 1.473901,-0.611812 2.793578,0.01946 3.381397,1.445885 l -3.016979,1.249569 c 0.201039,0.463436 0.69572,0.617273 1.11356,0.44398 0.25144,-0.103399 0.43111,-0.310153 0.446318,-0.588352 l 1.510533,-0.627273 c 0.144532,1.082761 -0.720674,1.819481 -1.647456,2.203524 z m 6.341968,-2.763437 -1.603171,-2.033692 -0.01421,0.0079 0.432102,2.518699 -1.542639,0.63878 -2.997148,-3.3607184 1.541593,-0.639806 1.649494,2.1625604 0.01475,-0.0061 -0.425996,-2.6709657 1.338015,-0.554838 1.647957,2.1625507 0.01475,-0.0061 -0.424949,-2.6699845 1.496817,-0.6222953 0.413765,4.4334798 -1.541103,0.640288 z"
     fill="#000000"
     id="path851"
     style="stroke-width:0.0492351" />
</svg>
